  0
SECTION
  2
HEADER
  9
$ANGBASE
  50
0.0
  9
$ANGDIR
  70
1
  9
$MEASUREMENT
  70
1
  0
ENDSEC
  0
SECTION
  2
TABLES
  0
TABLE
  2
LTYPE
  70
4
  0
LTYPE
  5
40F
  2
CONTINUOUS
  70
0
  3
Solid line
  72
65
  73
0
  40
0.0
  0
LTYPE
  5
410
  2
DASHDOT
 70
0
  3
Dash Dot ____ _ ____ _
 72
65
 73
4
 40
2.0
 49
1.25
 49
-0.25
 49
0.25
 49
-0.25
  0
LTYPE
  5
411
  2
DASHED
 70
0
  3
Dashed __ __ __ __ __
 72
65
 73
2
 40
0.75
 49
0.5
 49
-0.25
  0
LTYPE
  5
43B
  2
DOTTED
 70
0
  3
Dotted .  .  .  .
 72
65
 73
2
 40
0.2
 49
0.0
 49
-0.2
  0
ENDTAB
  0
TABLE
  2
STYLE
  70
4
  0
STYLE
  2
KICAD
  70
0
  40
0
  41
1
  42
1
  50
0
  71
0
  3
isocp.shx
  0
STYLE
  2
KICADB
  70
0
  40
0
  41
1
  42
1
  50
0
  71
0
  3
isocp.shx
  0
STYLE
  2
KICADI
  70
0
  40
0
  41
1
  42
1
  50
15
  71
0
  3
isocp.shx
  0
STYLE
  2
KICADBI
  70
0
  40
0
  41
1
  42
1
  50
15
  71
0
  3
isocp.shx
  0
ENDTAB
  0
TABLE
  2
LAYER
  70
1
  0
LAYER
  2
BLACK
  70
0
  62
7
  6
CONTINUOUS
  0
ENDTAB
  0
ENDSEC
  0
SECTION
  2
ENTITIES
0
CIRCLE
8
BLACK
10
66.
20
-31.
40
3.5
0
ARC
8
BLACK
10
34.
20
-2.
40
0.5
50
-90.00000000
51
-0.00000000
0
CIRCLE
8
BLACK
10
44.
20
8.
40
3.5
0
ARC
8
BLACK
10
99.5
20
7.7999999999999998
40
0.5
50
-90.00000000
51
-0.00000000
0
CIRCLE
8
BLACK
10
6.5
20
23.5
40
1.5999999999999999
0
LINE
8
BLACK
6
CONTINUOUS
10
34.
20
-2.5
11
30.
21
-2.5
0
CIRCLE
8
BLACK
10
55.
20
0.
40
3.2999999999999998
0
LINE
8
BLACK
6
CONTINUOUS
10
0.
20
-37.
11
0.
21
37.
0
CIRCLE
8
BLACK
10
81.
20
0.
40
1.5999999999999999
0
ARC
8
BLACK
10
99.
20
-37.
40
1.
50
-90.00000000
51
-0.00000000
0
LINE
8
BLACK
6
CONTINUOUS
10
30.
20
2.5
11
34.
21
2.5
0
ARC
8
BLACK
10
30.
20
-2.
40
0.5
50
-180.00000000
51
-90.00000000
0
ARC
8
BLACK
10
30.
20
2.
40
0.5
50
90.00000000
51
180.00000000
0
LINE
8
BLACK
6
CONTINUOUS
10
34.5
20
2.
11
34.5
21
-2.
0
CIRCLE
8
BLACK
10
66.
20
31.
40
3.5
0
LINE
8
BLACK
6
CONTINUOUS
10
29.5
20
-2.
11
29.5
21
2.
0
CIRCLE
8
BLACK
10
22.
20
-31.
40
3.5
0
LINE
8
BLACK
6
CONTINUOUS
10
99.
20
-38.
11
1.
21
-38.
0
LINE
8
BLACK
6
CONTINUOUS
10
1.
20
38.
11
99.
21
38.
0
ARC
8
BLACK
10
99.
20
37.
40
1.
50
0.00000000
51
90.00000000
0
ARC
8
BLACK
10
1.
20
37.
40
1.
50
90.00000000
51
180.00000000
0
LINE
8
BLACK
6
CONTINUOUS
10
99.5
20
-7.2999999999999998
11
85.3999999999999915
21
-7.2999999999999998
0
LINE
8
BLACK
6
CONTINUOUS
10
99.5
20
7.2999999999999998
11
85.3999999999999915
21
7.2999999999999998
0
CIRCLE
8
BLACK
10
6.5
20
0.
40
3.5
0
LINE
8
BLACK
6
CONTINUOUS
10
100.
20
7.7999999999999998
11
100.
21
37.
0
ARC
8
BLACK
10
34.
20
2.
40
0.5
50
0.00000000
51
90.00000000
0
LINE
8
BLACK
6
CONTINUOUS
10
84.8999999999999915
20
0.
11
84.8999999999999915
21
6.7999999999999998
0
ARC
8
BLACK
10
85.3999999999999915
20
6.7999999999999998
40
0.5
50
90.00000000
51
180.00000000
0
ARC
8
BLACK
10
1.
20
-37.
40
1.
50
-180.00000000
51
-90.00000000
0
CIRCLE
8
BLACK
10
44.
20
-8.
40
3.5
0
CIRCLE
8
BLACK
10
22.
20
31.
40
3.5
0
ARC
8
BLACK
10
85.3999999999999915
20
-6.7999999999999998
40
0.5
50
-180.00000000
51
-90.00000000
0
ARC
8
BLACK
10
99.5
20
-7.7999999999999998
40
0.5
50
0.00000000
51
90.00000000
0
LINE
8
BLACK
6
CONTINUOUS
10
84.8999999999999915
20
0.
11
84.8999999999999915
21
-6.7999999999999998
0
LINE
8
BLACK
6
CONTINUOUS
10
100.
20
-7.7999999999999998
11
100.
21
-37.
0
CIRCLE
8
BLACK
10
66.
20
0.
40
3.5
  0
ENDSEC
  0
EOF
